<svg xmlns="http://www.w3.org/2000/svg" viewBox="0 0 112 24" width="112" height="24">
	<style>
		tspan { white-space:pre }
		.shp0 { fill: #ffffff } 
	</style>
	<path id="Layer" fill-rule="evenodd" class="shp0" d="M13.93 8.17C18.66 11.31 15.26 20.12 8 20.12C-0.63 20.12 -2.14 10.65 3 7.37L4 8.62C3.43 9.02 2.94 9.53 2.57 10.12C2.2 10.71 1.95 11.36 1.84 12.05C1.72 12.74 1.74 13.44 1.91 14.12C2.07 14.8 2.36 15.44 2.77 16C2.86 15.89 2.95 15.78 3.03 15.66C3.12 15.55 3.2 15.43 3.28 15.32C3.36 15.2 3.43 15.08 3.51 14.96C3.58 14.84 3.65 14.71 3.72 14.59L10.32 3.17C10.5 2.78 10.74 2.41 11.02 2.08C11.3 1.74 11.62 1.45 11.97 1.2C12.33 0.94 12.71 0.74 13.12 0.59C13.52 0.43 13.95 0.33 14.38 0.29C19.27 0.29 18.93 6.5 13.93 8.17ZM7.87 18.23C13.82 18.23 16.11 9.76 10.35 8.55L9.69 8.48L5.56 15.63C5.47 15.78 5.38 15.94 5.28 16.09C5.18 16.24 5.08 16.38 4.98 16.53C4.88 16.68 4.77 16.82 4.66 16.96C4.56 17.1 4.44 17.24 4.33 17.38C4.6 17.53 4.88 17.65 5.17 17.76C5.45 17.87 5.75 17.97 6.04 18.04C6.34 18.11 6.65 18.16 6.95 18.19C7.26 18.23 7.56 18.24 7.87 18.23ZM15.36 4.6C16.59 2.33 14.3 0.51 12.51 3.6L10.51 7C13 7 14.41 6.45 15.36 4.6Z" fill="#fff" />
	<path id="Layer" fill-rule="evenodd" class="shp0" d="M110.08 13.37C110.19 13.41 110.29 13.45 110.39 13.51C110.48 13.57 110.58 13.64 110.66 13.72C110.74 13.8 110.81 13.88 110.87 13.98C110.94 14.07 110.99 14.17 111.03 14.28C109.02 16.61 106.68 18.74 103.12 18.81L102.98 18.81C102.68 18.82 102.38 18.78 102.09 18.69C101.8 18.6 101.52 18.47 101.28 18.28C101.04 18.1 100.83 17.88 100.66 17.63C100.49 17.38 100.37 17.1 100.29 16.81L101.68 16.15C101.76 16.31 101.89 16.45 102.05 16.54C102.2 16.63 102.38 16.68 102.56 16.68C102.75 16.68 102.93 16.63 103.08 16.54C103.24 16.45 103.37 16.31 103.45 16.15L107.16 9.73C107.8 8.62 106.08 7.25 103.34 10.98L96 23.75L93.53 23.75L98 16C97.79 16.09 97.57 16.18 97.36 16.25C97.14 16.32 96.91 16.38 96.69 16.43C96.46 16.48 96.24 16.51 96.01 16.54C95.78 16.56 95.55 16.58 95.32 16.58L94.78 16.58C92.12 19.94 87.78 19.33 87.78 16.2C86.26 17.66 84.69 18.73 83.26 18.73C81.28 18.73 80.58 17.05 81.58 15.24L84.77 9.69C85.84 7.87 84.16 7.26 80.38 12L76.64 18.53L74.16 18.53L75 17.06C74.73 17.27 74.44 17.47 74.14 17.65C73.84 17.83 73.53 17.99 73.22 18.13C72.9 18.27 72.57 18.39 72.24 18.49C71.91 18.6 71.57 18.68 71.23 18.74L71.16 18.74C71.1 18.74 71.05 18.75 70.99 18.75C70.93 18.75 70.88 18.75 70.82 18.75C70.76 18.75 70.71 18.75 70.65 18.75C70.59 18.75 70.54 18.74 70.48 18.74C70.18 18.75 69.88 18.71 69.59 18.62C69.3 18.53 69.03 18.39 68.79 18.21C68.55 18.03 68.34 17.81 68.17 17.56C68 17.31 67.88 17.03 67.8 16.74L69.33 15.94C69.37 16.06 69.43 16.18 69.51 16.28C69.59 16.39 69.68 16.48 69.78 16.56C69.88 16.64 69.99 16.7 70.11 16.75C70.23 16.8 70.36 16.83 70.49 16.84C72.82 16.84 72.27 12.26 73.27 9.71C72.4 10.86 71.17 12.59 69.78 14.19C67.74 16.55 65.37 18.72 63.38 18.72C61.39 18.72 60.7 17.05 61.7 15.23L64.3 10.72C64.36 10.61 64.41 10.49 64.43 10.37C64.46 10.25 64.46 10.13 64.45 10C64.44 9.88 64.41 9.76 64.36 9.64C64.31 9.53 64.24 9.42 64.16 9.33L63.83 8.93C61.87 11.59 60.95 12.82 59.77 14.19C57.74 16.55 54.98 18.72 52.19 18.72C50.02 18.72 48.73 17.37 48.86 15.6C48.61 15.75 48.36 15.88 48.1 15.99C47.83 16.11 47.56 16.21 47.29 16.3C47.02 16.38 46.74 16.45 46.45 16.5C46.17 16.55 45.89 16.58 45.6 16.6C45.56 16.6 45.51 16.61 45.47 16.61C45.42 16.61 45.38 16.61 45.33 16.61C45.28 16.61 45.24 16.61 45.19 16.61C45.15 16.61 45.1 16.6 45.06 16.6C44.82 16.94 44.55 17.24 44.24 17.52C43.93 17.79 43.6 18.03 43.23 18.23C42.87 18.43 42.49 18.58 42.1 18.69C41.7 18.8 41.29 18.87 40.88 18.89C40.52 18.93 40.15 18.88 39.81 18.77C39.46 18.65 39.14 18.46 38.88 18.22C38.61 17.97 38.4 17.67 38.25 17.33C38.11 17 38.04 16.63 38.05 16.27C36.54 17.72 34.97 18.79 33.54 18.79C31.55 18.79 30.86 17.12 31.86 15.3L34.46 10.79C34.52 10.68 34.57 10.56 34.59 10.44C34.62 10.32 34.62 10.2 34.61 10.07C34.6 9.95 34.57 9.83 34.52 9.71C34.47 9.6 34.4 9.49 34.32 9.4L34 9C32 11.62 31.13 12.85 29.97 14.22C27.93 16.58 25.57 18.75 23.57 18.75C23.33 18.78 23.08 18.77 22.84 18.7C22.6 18.64 22.37 18.53 22.18 18.39C21.98 18.24 21.81 18.05 21.69 17.84C21.56 17.63 21.48 17.39 21.44 17.15C21.21 17.37 20.96 17.57 20.7 17.75C20.43 17.93 20.16 18.09 19.87 18.22C19.58 18.36 19.28 18.47 18.98 18.56C18.67 18.65 18.36 18.71 18.04 18.75C16.05 18.75 15.36 17.08 16.36 15.26L19.8 9.31C20.01 8.92 20.26 8.56 20.56 8.24C20.85 7.91 21.19 7.62 21.55 7.38C21.92 7.13 22.31 6.93 22.72 6.78C23.13 6.63 23.56 6.53 24 6.48C24.33 6.48 24.67 6.54 24.98 6.67C25.28 6.79 25.57 6.98 25.81 7.21C26.04 7.44 26.23 7.72 26.37 8.03C26.5 8.34 26.57 8.67 26.57 9L28 9L24.03 15.9C23.46 16.86 23.77 17.24 24.31 17.24C25.4 17.24 27.12 15.61 28.89 13.56L29.06 13.37C30.66 11.48 32.12 9.4 33.21 7.87L33 7.59C32.09 6.45 32.21 5.06 33.6 3.81L34.87 5.2C34.77 5.28 34.68 5.39 34.62 5.5C34.55 5.62 34.52 5.75 34.5 5.88C34.49 6.01 34.5 6.15 34.54 6.27C34.58 6.4 34.64 6.52 34.73 6.62L36.11 8.27C36.34 8.48 36.52 8.72 36.66 8.99C36.8 9.27 36.89 9.56 36.92 9.87C36.95 10.17 36.93 10.48 36.85 10.78C36.77 11.07 36.64 11.35 36.46 11.6L34.01 15.9C33.44 16.86 33.75 17.24 34.29 17.24C35.38 17.24 37.1 15.61 38.87 13.56L39 13.41L45.87 1.5L48.37 1.5L45.25 6.91C45.37 6.83 45.49 6.75 45.61 6.69C45.74 6.62 45.87 6.56 46.01 6.52C46.14 6.47 46.28 6.44 46.42 6.41C46.56 6.39 46.71 6.37 46.85 6.37C47.14 6.35 47.44 6.4 47.71 6.5C47.99 6.61 48.24 6.77 48.45 6.97C48.66 7.18 48.82 7.43 48.93 7.71C49.04 7.98 49.08 8.28 49.07 8.57C49.05 8.82 49.02 9.07 48.97 9.31C48.93 9.55 48.86 9.8 48.79 10.03C48.71 10.27 48.62 10.5 48.51 10.73C48.4 10.95 48.28 11.17 48.15 11.38L45.84 15.38C46.19 15.36 46.54 15.31 46.89 15.22C47.23 15.13 47.56 15.01 47.88 14.85C48.2 14.7 48.5 14.51 48.78 14.29C49.06 14.07 49.32 13.83 49.55 13.56L49.7 13.39L52.04 9.28C52.26 8.86 52.53 8.47 52.85 8.12C53.17 7.77 53.54 7.47 53.94 7.22C54.35 6.97 54.78 6.78 55.24 6.65C55.69 6.52 56.17 6.45 56.64 6.45C58.64 6.45 59.96 8.18 58.64 10.45L58.29 11.06C56.45 14.24 53.47 14.55 51.89 13.89L51.65 14.31C50.52 16.3 51.42 17.24 52.93 17.24C54.69 17.24 56.92 15.61 58.69 13.56L58.86 13.37C60.46 11.48 61.92 9.4 63.01 7.87L62.8 7.59C61.92 6.45 62 5.06 63.44 3.81L64.71 5.2C64.61 5.28 64.52 5.39 64.46 5.5C64.39 5.62 64.36 5.75 64.34 5.88C64.33 6.01 64.34 6.15 64.38 6.27C64.42 6.4 64.48 6.52 64.57 6.62L65.91 8.25C66.14 8.46 66.32 8.7 66.46 8.97C66.6 9.25 66.69 9.54 66.72 9.85C66.75 10.15 66.73 10.46 66.65 10.76C66.57 11.05 66.44 11.33 66.26 11.58L63.8 15.88C63.23 16.84 63.54 17.22 64.08 17.22C65.17 17.22 66.89 15.59 68.66 13.54L68.83 13.35C71.05 10.75 73.28 7.54 74.28 6.15L76.13 7.15C74.62 10.3 74.78 13.88 74 16.22C74.28 16.03 74.55 15.84 74.81 15.63C75.08 15.42 75.33 15.21 75.58 14.99C75.83 14.77 76.07 14.54 76.31 14.3C76.54 14.06 76.77 13.81 76.99 13.56L77.13 13.4L84 1.53L86.41 1.53L82.49 8.35C82.7 8.09 82.93 7.85 83.19 7.63C83.44 7.42 83.72 7.23 84.01 7.07C84.3 6.91 84.61 6.78 84.93 6.68C85.25 6.58 85.58 6.51 85.91 6.48C87.23 6.48 88.29 7.82 87.23 9.69L83.69 15.9C83.12 16.86 83.43 17.24 83.97 17.24C85.06 17.24 86.78 15.61 88.55 13.56L88.68 13.41L89.68 11.69L90.88 9.59C92.3 7.14 93.76 6.38 95.65 6.38C97.97 6.38 99.34 8.81 97.85 11.38L95.53 15.38C95.88 15.36 96.23 15.31 96.58 15.22C96.92 15.13 97.25 15 97.57 14.85C97.89 14.69 98.19 14.5 98.47 14.29C98.75 14.07 99.01 13.83 99.24 13.56L99.41 13.37L103.25 6.71L105.71 6.71L105.21 7.56C107.71 5.32 111.42 6.62 109.13 10.51L106.42 15.16C106.13 15.68 105.82 16.36 105.42 17C105.86 16.81 106.28 16.6 106.69 16.36C107.11 16.11 107.5 15.85 107.88 15.56C108.26 15.27 108.62 14.96 108.96 14.62C109.3 14.29 109.61 13.93 109.91 13.56L110.08 13.37ZM52.6 12.68C53.52 13.05 55.1 13.05 56.28 11.05L56.63 10.44C58.1 7.92 55.6 7.49 54.18 9.92L52.6 12.68ZM24.6 10.42C25.8 8.2 23.18 7.61 21.86 9.9L18.44 15.9C17.87 16.86 18.18 17.24 18.72 17.24C19.72 17.24 21.23 16.13 22.72 13.79L24.6 10.42ZM41.76 17.04C41.94 16.98 42.11 16.9 42.27 16.8C42.44 16.71 42.58 16.59 42.72 16.45C42.85 16.32 42.96 16.16 43.06 16C42.85 15.85 42.65 15.69 42.47 15.5C42.29 15.31 42.13 15.1 42 14.88C41.86 14.66 41.75 14.42 41.67 14.18C41.59 13.93 41.53 13.68 41.5 13.42L40.63 14.93C40.57 15.02 40.51 15.12 40.46 15.23C40.42 15.33 40.37 15.43 40.34 15.54C40.3 15.65 40.27 15.75 40.25 15.87C40.23 15.98 40.21 16.09 40.2 16.2C40.2 16.33 40.22 16.46 40.27 16.58C40.32 16.7 40.4 16.81 40.49 16.89C40.58 16.98 40.7 17.05 40.82 17.09C40.94 17.14 41.07 17.15 41.2 17.14C41.39 17.13 41.58 17.1 41.76 17.04ZM46.28 10.46C46.35 10.35 46.41 10.24 46.47 10.12C46.52 10 46.57 9.88 46.61 9.76C46.65 9.64 46.68 9.51 46.7 9.38C46.73 9.26 46.74 9.13 46.75 9C46.77 8.87 46.76 8.74 46.72 8.62C46.68 8.49 46.62 8.37 46.54 8.27C46.45 8.17 46.35 8.09 46.23 8.04C46.12 7.98 45.99 7.95 45.86 7.94C44.47 7.94 42.77 10.79 42.77 12.54C42.76 12.75 42.77 12.96 42.81 13.17C42.85 13.38 42.91 13.58 43 13.77C43.09 13.96 43.2 14.15 43.33 14.31C43.46 14.48 43.6 14.63 43.77 14.76L46.28 10.46ZM96.02 10.44C97.5 7.89 95.14 6.73 93.42 9.66L92.24 11.66L90.37 14.89C88.87 17.43 91.71 17.83 92.87 15.83C92.83 15.77 92.8 15.7 92.77 15.64C92.74 15.57 92.71 15.5 92.69 15.43C92.67 15.36 92.66 15.29 92.65 15.22C92.64 15.15 92.63 15.07 92.63 15C92.63 14.81 92.66 14.62 92.73 14.44C92.8 14.26 92.91 14.1 93.04 13.97C93.18 13.83 93.34 13.72 93.51 13.65C93.69 13.57 93.88 13.53 94.07 13.53L94.19 13.53L96.02 10.44Z" fill="#fff" />
</svg>
