<?xml version="1.0" encoding="utf-8"?>
<!-- Generator: Adobe Illustrator 24.2.0, SVG Export Plug-In . SVG Version: 6.00 Build 0)  -->
<svg version="1.1" id="Слой_1" xmlns="http://www.w3.org/2000/svg" xmlns:xlink="http://www.w3.org/1999/xlink" x="0px" y="0px"
	 viewBox="0 0 369.4 153" style="enable-background:new 0 0 369.4 153;" xml:space="preserve">
<style type="text/css">
	.st0{fill:#FFFFFF;}
	.st1{fill:#636466;}
</style>
<path class="st0" d="M119.9,11.4C127,9,127.6,0,120.5,0c-1.9,0-4.3,1.4-5.9,4.2L105,20.7c-0.4,0.7-0.9,1.4-1.4,2
	c-2.5-3.4-1.7-8.4,1.7-10.7l-1.3-1.8c-7.5,4.8-5.3,18.5,7.2,18.5C121.8,28.7,126.7,16,119.9,11.4z M111.1,26c-1.8,0-3.6-0.4-5.1-1.2
	c0.7-0.8,1.3-1.6,1.8-2.5l6-10.4l1,0.1C123,13.7,119.7,26,111.1,26z M114.9,9.8l2.9-4.9c2.6-4.5,5.9-1.8,4.1,1.5
	C120.5,8.9,118.5,9.7,114.9,9.8z"/>
<path class="st0" d="M259.2,19l-0.2,0.3c-1.7,2.2-4,3.9-6.5,5c0.6-0.9,1-1.9,1.5-2.7l3.9-6.7c3.3-5.6-2.1-7.5-5.7-4.3l0.7-1.2h-3.6
	l-5.6,9.6l-0.2,0.3c-1.4,1.6-3.3,2.5-5.4,2.6l3.4-5.8c2.2-3.7,0.2-7.3-3.2-7.3c-2.7,0-4.9,1.1-6.9,4.6l-1.8,3l-1.5,2.5l-0.2,0.2
	c-2.6,3-5.1,5.3-6.6,5.3c-0.8,0-1.2-0.5-0.4-2l5.1-9c1.5-2.7,0.1-4.6-1.9-4.6c-1.5,0-3.2,0.9-5,2.7l5.7-9.9h-3.6L211.4,19l-0.2,0.2
	c-1.2,1.5-2.7,2.8-4.3,3.9c1.1-3.4,0.9-8.6,3.1-13.1l-2.7-1.4c-1.5,2-4.7,6.7-7.9,10.4l-0.2,0.3c-2.6,3-5.1,5.3-6.6,5.3
	c-0.8,0-1.2-0.5-0.4-2l3.6-6.2c1.2-2.2,0.6-3.4-0.5-4.8l-2-2.4c-0.5-0.6-0.5-1.4,0.1-2c0,0,0,0,0,0l0.1-0.1l-1.9-2
	c-2,1.8-2.2,3.8-0.9,5.5l0.3,0.4c-1.6,2.2-3.7,5.2-6,8l-0.2,0.3c-2.6,3-5.9,5.3-8.4,5.3c-2.2,0-3.5-1.4-1.9-4.2l0.3-0.6
	c2.3,1,6.6,0.5,9.3-4.1l0.5-0.9c1.9-3.3,0.1-5.8-2.8-5.8c-2.8,0-5.4,1.6-6.7,4.1l-3.5,6l-0.2,0.2c-1.4,1.6-3.3,2.5-5.4,2.6l3.4-5.8
	c0.8-1.2,1.2-2.6,1.3-4.1c0.1-1.7-1.2-3.1-2.8-3.2c0,0,0,0,0,0h-0.4c-0.8,0-1.7,0.3-2.3,0.8l4.5-7.8h-3.6l-10,17.2l-0.2,0.2
	c-2.6,3-5.1,5.3-6.6,5.3c-0.8,0-1.2-0.5-0.4-2l3.6-6.2c1.2-2.2,0.6-3.4-0.5-4.8l-2-2.4c-0.5-0.6-0.5-1.4,0.1-2c0,0,0,0,0,0l0.1-0.1
	l-1.9-2c-2,1.8-2.2,3.8-0.9,5.5l0.3,0.4c-1.6,2.2-3.7,5.2-6,8l-0.2,0.3c-2.6,3-5.1,5.3-6.6,5.3c-0.8,0-1.2-0.5-0.4-2l5.8-10.1h-2
	c-0.1-2-1.8-3.5-3.8-3.4c-1.9,0-4.6,1.5-6.1,4.1l-5,8.6c-1.5,2.6-0.4,5.1,2.4,5.1c1.4,0,3.2-0.9,4.9-2.3c0.2,1.4,1.3,2.3,3.1,2.3
	c2.9,0,6.3-3.1,9.3-6.6c1.7-2,3-3.8,5.9-7.6l0.5,0.6c0.5,0.6,0.6,1.4,0.2,2l-3.8,6.5c-1.5,2.6-0.4,5.1,2.4,5.1
	c2.1,0,4.3-1.5,6.5-3.6c0,2.4,1.8,3.8,4.1,3.8c2.4-0.1,4.6-1.3,6-3.3c0.3,0,0.5,0,0.8,0c1.7-0.1,3.3-0.6,4.7-1.4
	c-0.2,2.6,1.7,4.5,4.8,4.5c4,0,8-3.1,11-6.6c1.7-2,3-3.8,5.9-7.6l0.5,0.6c0.5,0.6,0.6,1.4,0.2,2l-3.8,6.5c-1.5,2.6-0.4,5.1,2.4,5.1
	s6.3-3.1,9.3-6.6c2-2.3,3.8-4.8,5.1-6.5c-1.4,3.7-0.6,10.3-4,10.3c-0.8-0.1-1.4-0.6-1.7-1.3l-2.2,1.2c0.5,1.8,2.1,2.9,3.9,2.9
	c0.3,0,0.7,0,1-0.1h0.1c2-0.3,3.9-1.1,5.5-2.4l-1.2,2.1h3.6l5.4-9.4c5.5-6.9,7.9-6,6.4-3.4l-4.6,8c-1.5,2.6-0.4,5.1,2.4,5.1
	c2.1,0,4.4-1.6,6.6-3.7c0,4.5,6.3,5.4,10.1,0.5h0.8c1.3-0.1,2.6-0.4,3.8-0.9l-6.5,11.2h3.6l10.6-18.5c4-5.4,6.5-3.4,5.5-1.8
	l-5.4,9.3c-0.3,0.7-1.1,1.1-1.8,0.8c-0.4-0.1-0.7-0.4-0.8-0.8l-2,1c0.5,1.8,2.1,2.9,3.9,2.9h0.2c5.2-0.1,8.6-3.2,11.5-6.6
	C260.3,19.6,259.8,19.2,259.2,19L259.2,19z M178.2,14c2.1-3.5,5.7-2.9,3.6,0.8l-0.5,0.9c-1.7,2.9-4,2.8-5.3,2.4L178.2,14z
	 M132.6,19.6c-2.2,3.4-4.3,5-5.8,5c-0.8,0-1.2-0.5-0.4-2l5-8.7c1.9-3.3,5.7-2.5,4,0.8L132.6,19.6z M159.4,24.5
	c-0.7,0.1-1.4-0.5-1.4-1.2c0-0.1,0-0.1,0-0.2c0.1-0.7,0.3-1.3,0.6-1.9l1.3-2.3c0.2,1.5,1,2.8,2.3,3.7
	C161.5,23.7,160.5,24.3,159.4,24.5L159.4,24.5z M163.1,21c-1-0.8-1.6-2-1.5-3.2c0-2.5,2.5-6.7,4.5-6.7c0.8,0,1.4,0.6,1.4,1.4
	c0,0.1,0,0.1,0,0.2c0,0.8-0.3,1.5-0.7,2.1L163.1,21z M236.2,19.2H236c-1.2,0-2.1,1-2.1,2.1c0,0,0,0,0,0c0,0.4,0.1,0.8,0.3,1.2v0.1
	c-1.7,2.9-5.8,2.3-3.6-1.4l2.7-4.7l1.7-2.9c2.5-4.2,5.9-2.6,3.8,1.1L236.2,19.2z M0,73.3l5.7-5.7l5.7,5.7L5.7,79L0,73.3z M352,73.3
	l5.7-5.7l5.7,5.7l-5.7,5.7L352,73.3z"/>
<path class="st1" d="M46.8,73.5h2.1v-8.3h3.3v-2.1h-5.3V73.5z M61.7,75V62.3c0-1.7-1-3.3-2.6-4.1c0.3,0.6,0.5,1.3,0.5,2v12.7
	c0,1.4-0.6,2.7-1.7,3.5c1,1,1.6,2.3,1.7,3.7v14.1c0,2.5-2.1,4.5-4.6,4.6H41.5v2.1h15.6c2.5,0,4.5-2.1,4.6-4.6V82.2
	c0-1.4-0.6-2.7-1.7-3.7C61.1,77.7,61.7,76.4,61.7,75z"/>
<path class="st1" d="M46.8,91.3h2.1v-8.4h3.3v-2.1h-5.3V91.3z M79.8,91.3h2.1V65.2h3.3v-2.1h-5.3C79.8,63.1,79.8,91.3,79.8,91.3z"/>
<path class="st1" d="M92.1,58.3c0.3,0.6,0.5,1.3,0.5,2v34c0,2.5-2.1,4.5-4.6,4.6H77c-0.7,0-1.4-0.2-2-0.5c0.8,1.6,2.3,2.5,4.1,2.6
	h11.1c2.5,0,4.5-2.1,4.6-4.6v-34C94.7,60.6,93.7,59,92.1,58.3z M112.8,73.5h2.1v-8.3h3.3v-2.1h-5.4V73.5z M125.1,82.5
	c1.6-0.7,2.6-2.3,2.6-4.1V62.3c0-1.7-1-3.3-2.6-4.1c0.3,0.6,0.5,1.3,0.5,2v16.2c0,1.7-1,3.3-2.6,4.1l3.1,18.3h-5.7l0.3,2.1h7.4
	L125.1,82.5z M115.7,80.9h-2.8v17.9h-5.3v2.1h7.4V82.9h1.1L115.7,80.9z M144.8,91.3h2.1V65.2h3.3v-2.1h-5.4
	C144.8,63.1,144.8,91.3,144.8,91.3z"/>
<path class="st1" d="M157.2,58.3c0.3,0.6,0.5,1.3,0.5,2v34c0,2.5-2.1,4.5-4.6,4.6H142c-0.7,0-1.4-0.2-2-0.5c0.8,1.6,2.3,2.5,4.1,2.6
	h11.1c2.5,0,4.5-2.1,4.6-4.6v-34C159.7,60.6,158.7,59,157.2,58.3L157.2,58.3z M177.8,91.3h2.1V65.2h3.3v-2.1h-5.4
	C177.8,63.1,177.8,91.3,177.8,91.3z"/>
<path class="st1" d="M190.2,58.3c0.3,0.6,0.5,1.3,0.5,2v34c0,2.5-2.1,4.5-4.6,4.6h-13.6v2.1h15.6c2.5,0,4.5-2.1,4.6-4.6v-34
	C192.7,60.6,191.7,59,190.2,58.3z M211.2,57.8v41h-5.3v2.1h7.4V57.8H211.2z M244.1,57.8v41h-5.9l0.6,2.1h7.4V57.8H244.1z
	 M231.3,79.9v18.8H226v2.1h7.4V87.2C233.4,87.2,231.3,80,231.3,79.9z M263.6,83h6.1v-2.1h-8.2c-0.7,0-1.4-0.2-2-0.5
	C260.2,82,261.8,83,263.6,83L263.6,83z M266.4,85.7l-2.1,0.5v5.1h2.1V85.7z M276.7,58.3c0.3,0.6,0.5,1.3,0.5,2V69l-5.4,1.2v2.6
	l7.5-1.7v-8.8C279.2,60.6,278.2,59,276.7,58.3L276.7,58.3z"/>
<path class="st1" d="M276.7,76.1c0.3,0.6,0.5,1.3,0.5,2v16.2c0,2.5-2.1,4.5-4.6,4.6h-11.1c-0.7,0-1.4-0.2-2-0.5
	c0.8,1.6,2.3,2.5,4.1,2.6h11.1c2.5,0,4.5-2.1,4.6-4.6V80.1C279.2,78.4,278.2,76.8,276.7,76.1z M264.3,63.1v10.4h2.1v-8.3h3.3v-2.1
	H264.3z M298,80.9h-0.7v17.9H292v2.1h7.4V85.3L298,80.9L298,80.9z M313.2,57.8h-2.8l-6.2,19.4l6.9,21.6h-6l0.6,1.8l0.1,0.3h7.5
	l-6.9-21.6L313.2,57.8L313.2,57.8z M330.5,57.8v41h-5.3v2.1h7.4V57.8L330.5,57.8L330.5,57.8z"/>
<path class="st0" d="M167.9,123.8h1.4c5.4,0.3,9.7,1.7,12.4,4.7c2.7-3,7-4.5,12.5-4.7h1.4c12.1,0.8,17.6,9.5,27.3,13.2
	c1.5,0.7,3.1,1,4.8,1c2.5-0.3,4.1-2.8,3.7-5.6c-0.3-3-3.3-5.6-6.6-4.2c-0.4,0.2-0.8,0.5-1.2,0.8c-0.3,0.2-0.5,0.8-1.2,0.6
	c-0.6-0.5,0-1.2,0.3-1.6c1.2-2.2,3.6-3.3,6.1-3c5.6,0.4,10.7,5.3,9.8,12.8c-1.9,11.1-12.1,14.1-24.2,15.1h-3.9
	c-10.5-0.4-20.6-4.3-28.8-11c-8.2,6.7-18.3,10.5-28.9,11H149c-12.2-1.1-22.4-4-24.2-15.5c-0.7-8.2,4.2-12.2,9.8-12.6
	c2.5-0.3,4.9,0.8,6.1,3c0.3,0.5,0.8,1.2,0.3,1.7c-0.6,0.1-0.9-0.4-1.2-0.6c-0.7-0.8-1.8-1.2-2.8-1.2c-3.9-0.1-6.1,4.2-4.5,7.6
	c0.6,1.4,1.9,2.3,3.4,2.5c1.6,0,3.3-0.3,4.8-1c1.3-0.5,2.6-1.2,3.9-1.9C151.9,130.8,157.6,124.8,167.9,123.8L167.9,123.8z"/>
<path class="st1" d="M361.6,82.9l5.7-5.7l2.1,2.1l-5.7,5.7L361.6,82.9z M9.7,82.9l5.7-5.7l2.1,2.1L11.8,85L9.7,82.9z"/>
<path class="st0" d="M55.7,69c0,1.3-0.6,2.6-1.7,3.5c1,1,1.6,2.3,1.7,3.7v14.1c0,2.5-2.1,4.5-4.6,4.6H35.5V51.7h15.6
	c2.5,0,4.5,2,4.6,4.6V69z M48.2,59.1h-5.4v10.4h5.4V59.1z M48.2,76.9h-5.4v10.5h5.4V76.9z M84.1,51.7c2.5,0,4.5,2,4.6,4.6v34
	c0,2.5-2.1,4.5-4.6,4.6H73c-2.5,0-4.5-2-4.6-4.6v-34c0-2.5,2-4.6,4.5-4.6c0,0,0,0,0,0C73,51.7,84.1,51.7,84.1,51.7z M81.2,59.1h-5.3
	v28.3h5.4L81.2,59.1z M114.7,94.8l-3-17.9h-2.8v17.9h-7.4V51.7h15.6c2.5,0,4.5,2.1,4.5,4.6c0,0,0,0,0,0v16.1c0,1.8-1,3.3-2.6,4.1
	l3.1,18.3L114.7,94.8z M114.2,59.1h-5.4v10.4h5.4V59.1z M149.1,51.7c2.5,0,4.5,2,4.6,4.6v34c0,2.5-2.1,4.5-4.6,4.6h-11.1
	c-2.5,0-4.5-2-4.6-4.6v-34c0-2.5,2-4.5,4.5-4.6L149.1,51.7L149.1,51.7z M146.2,59.1h-5.4v28.3h5.4V59.1z M182.2,51.7
	c2.5,0,4.5,2,4.6,4.6v34c0,2.5-2.1,4.5-4.6,4.6h-15.6V51.7H182.2z M179.3,59.1h-5.4v28.3h5.4V59.1z M199.9,51.7h7.4v43.1h-7.4V51.7z
	 M240.2,51.7v43.1h-7.4L227.4,76v18.8H220V51.7h7.3l5.4,17.7V51.7H240.2z M268.6,69.5c2.5,0,4.5,2,4.6,4.6v16.2
	c0,2.5-2.1,4.5-4.6,4.6h-11.1c-2.5,0-4.5-2.1-4.5-4.6v-8.9l7.4-1.7v7.7h5.4V76.9h-8.2c-2.5,0-4.6-2-4.6-4.5c0,0,0,0,0,0V56.3
	c0-2.5,2-4.6,4.5-4.6h0h11.1c2.5,0,4.5,2,4.6,4.6V65l-7.5,1.7v-7.6h-5.4v10.4H268.6z M300.2,73.2l6.9,21.6h-7.5l-0.1-0.3l-5.5-17.7
	h-0.7v17.9H286V51.7h7.4v17.8h0.6l5.7-17.8h7.5L300.2,73.2z M319.2,51.7h7.4v43.1h-7.4V51.7z"/>
</svg>
