<svg xmlns="http://www.w3.org/2000/svg" viewBox="0 0 12 12" width="12" height="12">
	<style>
		tspan { white-space:pre }
		.shp0 { fill: #000000 } 
	</style>
	<path id="Layer" class="shp0" d="M11.12 2C11.16 2.04 11.19 2.08 11.21 2.13C11.23 2.18 11.24 2.23 11.24 2.28C11.24 2.34 11.23 2.39 11.21 2.44C11.19 2.49 11.16 2.53 11.12 2.57L8 5.71C7.96 5.75 7.93 5.79 7.91 5.84C7.89 5.89 7.88 5.94 7.88 5.99C7.88 6.05 7.89 6.1 7.91 6.15C7.93 6.2 7.96 6.24 8 6.28L11.14 9.42C11.18 9.46 11.21 9.5 11.23 9.55C11.25 9.6 11.26 9.65 11.26 9.7C11.26 9.76 11.25 9.81 11.23 9.86C11.21 9.91 11.18 9.95 11.14 9.99L10 11.13C9.96 11.17 9.92 11.2 9.87 11.22C9.82 11.24 9.77 11.25 9.71 11.25C9.66 11.25 9.61 11.24 9.56 11.22C9.51 11.2 9.47 11.17 9.43 11.13L6.27 8C6.23 7.96 6.19 7.93 6.14 7.91C6.09 7.89 6.04 7.88 5.98 7.88C5.93 7.88 5.88 7.89 5.83 7.91C5.78 7.93 5.74 7.96 5.7 8L2.56 11.12C2.52 11.16 2.48 11.19 2.43 11.21C2.38 11.23 2.33 11.24 2.27 11.24C2.22 11.24 2.17 11.23 2.12 11.21C2.07 11.19 2.03 11.16 1.99 11.12L0.85 10C0.81 9.96 0.78 9.92 0.76 9.87C0.74 9.82 0.73 9.77 0.73 9.71C0.73 9.66 0.74 9.61 0.76 9.56C0.78 9.51 0.81 9.47 0.85 9.43L4 6.28C4.04 6.24 4.07 6.2 4.09 6.15C4.11 6.1 4.12 6.05 4.12 5.99C4.12 5.94 4.11 5.89 4.09 5.84C4.07 5.79 4.04 5.75 4 5.71L0.85 2.57C0.81 2.53 0.78 2.49 0.76 2.44C0.74 2.39 0.73 2.34 0.73 2.28C0.73 2.23 0.74 2.18 0.76 2.13C0.78 2.08 0.81 2.04 0.85 2L2 0.86C2.04 0.82 2.08 0.79 2.13 0.77C2.18 0.75 2.23 0.74 2.28 0.74C2.34 0.74 2.39 0.75 2.44 0.77C2.49 0.79 2.53 0.82 2.57 0.86L5.7 4C5.74 4.04 5.78 4.07 5.83 4.09C5.88 4.11 5.93 4.12 5.98 4.12C6.04 4.12 6.09 4.11 6.14 4.09C6.19 4.07 6.23 4.04 6.27 4L9.41 0.87C9.45 0.83 9.49 0.8 9.54 0.78C9.59 0.76 9.64 0.75 9.69 0.75C9.75 0.75 9.8 0.76 9.85 0.78C9.9 0.8 9.94 0.83 9.98 0.87L11.12 2Z" />
</svg>