<svg xmlns="http://www.w3.org/2000/svg" viewBox="0 0 13 13" width="13" height="13">
	<style>
		tspan { white-space:pre }
		.shp0 { fill: #000000 } 
	</style>
	<path id="Layer" class="shp0" d="M12.31 10.5C12.27 10.38 12.23 10.26 12.17 10.14C12.12 10.03 12.05 9.91 11.98 9.81C11.9 9.7 11.82 9.6 11.73 9.51C11.64 9.42 11.54 9.34 11.44 9.26C11.23 9.14 11.01 9.02 10.79 8.91C10.58 8.8 10.35 8.69 10.13 8.6C9.9 8.5 9.67 8.41 9.44 8.33C9.21 8.25 8.98 8.18 8.74 8.11C8.68 8.09 8.63 8.07 8.57 8.05C8.52 8.03 8.46 8.01 8.41 7.99C8.35 7.96 8.3 7.94 8.25 7.91C8.19 7.89 8.14 7.86 8.09 7.83C8.05 7.8 8.01 7.76 7.98 7.72C7.95 7.69 7.92 7.64 7.89 7.6C7.87 7.56 7.85 7.51 7.83 7.46C7.82 7.41 7.81 7.36 7.8 7.31C7.8 7.28 7.8 7.26 7.8 7.23C7.8 7.21 7.8 7.18 7.8 7.15C7.8 7.13 7.8 7.1 7.8 7.08C7.8 7.05 7.8 7.03 7.8 7C7.97 6.73 8.13 6.45 8.26 6.16C8.39 5.87 8.51 5.56 8.6 5.26C8.69 4.95 8.76 4.64 8.8 4.32C8.85 4 8.87 3.68 8.87 3.36C8.92 3.03 8.9 2.69 8.79 2.37C8.69 2.06 8.52 1.77 8.28 1.53C8.05 1.29 7.76 1.11 7.44 1C7.13 0.9 6.79 0.86 6.46 0.91C6.13 0.86 5.78 0.88 5.46 0.98C5.14 1.09 4.84 1.27 4.6 1.51C4.36 1.74 4.18 2.04 4.08 2.36C3.97 2.68 3.95 3.03 4 3.36C4.01 3.69 4.04 4.02 4.09 4.35C4.15 4.68 4.23 5 4.33 5.32C4.44 5.63 4.56 5.94 4.71 6.24C4.86 6.53 5.04 6.82 5.23 7.09L5.23 7.3C5.22 7.35 5.21 7.4 5.2 7.45C5.18 7.5 5.16 7.55 5.14 7.59C5.11 7.63 5.08 7.68 5.05 7.72C5.02 7.75 4.98 7.79 4.94 7.82C4.89 7.85 4.84 7.88 4.78 7.9C4.73 7.93 4.68 7.95 4.62 7.98C4.57 8 4.51 8.02 4.46 8.04C4.4 8.06 4.35 8.08 4.29 8.1C4.05 8.16 3.82 8.24 3.59 8.32C3.36 8.4 3.13 8.48 2.9 8.58C2.68 8.67 2.45 8.77 2.24 8.88C2.02 8.99 1.8 9.11 1.59 9.23C1.49 9.31 1.39 9.4 1.3 9.49C1.21 9.59 1.13 9.69 1.05 9.8C0.98 9.9 0.91 10.02 0.86 10.13C0.8 10.25 0.76 10.37 0.72 10.5C0.68 10.63 0.65 10.76 0.62 10.89C0.59 11.03 0.56 11.16 0.55 11.3C0.53 11.43 0.51 11.57 0.51 11.7C0.5 11.84 0.5 11.97 0.5 12.11L12.53 12.11C12.53 11.97 12.53 11.84 12.52 11.7C12.52 11.57 12.5 11.43 12.48 11.3C12.47 11.16 12.44 11.03 12.41 10.89C12.38 10.76 12.35 10.63 12.31 10.5L12.31 10.5Z" />
</svg>