<svg xmlns="http://www.w3.org/2000/svg" viewBox="0 0 13 16" width="13" height="16">
	<style>
		tspan { white-space:pre }
		.shp0 { fill: #000000 } 
	</style>
	<path id="Layer" fill-rule="evenodd" class="shp0" d="M10.25 6.57C10.5 6.57 10.74 6.62 10.97 6.71C11.19 6.81 11.4 6.94 11.58 7.12C11.75 7.29 11.89 7.5 11.98 7.72C12.08 7.95 12.13 8.19 12.13 8.44L12.13 13.12C12.13 13.37 12.08 13.61 11.99 13.84C11.89 14.07 11.75 14.27 11.58 14.45C11.4 14.62 11.2 14.76 10.97 14.86C10.74 14.95 10.5 15 10.25 15L2.75 15C2.5 15 2.26 14.95 2.03 14.86C1.8 14.77 1.6 14.63 1.42 14.46C1.25 14.28 1.11 14.08 1.01 13.85C0.92 13.62 0.87 13.38 0.87 13.13L0.87 8.44C0.87 8.19 0.92 7.95 1.01 7.72C1.11 7.49 1.25 7.29 1.42 7.11C1.6 6.94 1.8 6.8 2.03 6.7C2.26 6.61 2.5 6.56 2.75 6.56L2.75 3.75C2.75 2.76 3.15 1.8 3.85 1.1C4.55 0.4 5.51 0 6.5 0C7.49 0 8.45 0.4 9.15 1.1C9.85 1.8 10.25 2.76 10.25 3.75L10.25 6.57ZM6.99 11.11C7.06 11.07 7.12 11.02 7.18 10.97C7.24 10.91 7.29 10.85 7.33 10.78C7.37 10.71 7.4 10.63 7.43 10.56C7.45 10.48 7.46 10.4 7.46 10.32C7.49 10.06 7.4 9.79 7.22 9.59C7.04 9.4 6.79 9.28 6.52 9.28C6.26 9.28 6.01 9.4 5.83 9.59C5.65 9.79 5.56 10.06 5.59 10.32C5.59 10.4 5.6 10.48 5.62 10.56C5.65 10.63 5.68 10.71 5.72 10.78C5.76 10.85 5.81 10.91 5.87 10.97C5.93 11.02 5.99 11.07 6.06 11.11L6.06 12.66C6.06 12.78 6.11 12.9 6.2 12.99C6.29 13.08 6.41 13.13 6.53 13.13C6.65 13.13 6.77 13.08 6.86 12.99C6.95 12.9 7 12.78 7 12.66L7 11.11L6.99 11.11ZM8.38 6.56L8.37 3.75C8.38 3.25 8.18 2.78 7.83 2.43C7.48 2.08 7 1.88 6.5 1.88C6.01 1.88 5.53 2.08 5.18 2.43C4.83 2.78 4.63 3.25 4.63 3.75L4.63 6.56L8.38 6.56Z" />
</svg>